<?xml version="1.0" standalone="no"?>
<!DOCTYPE svg PUBLIC "-//W3C//DTD SVG 20010904//EN"
 "http://www.w3.org/TR/2001/REC-SVG-20010904/DTD/svg10.dtd">
<svg version="1.0" xmlns="http://www.w3.org/2000/svg"
 width="384.000000pt" height="384.000000pt" viewBox="0 0 384.000000 384.000000"
 preserveAspectRatio="xMidYMid meet">
<metadata>
Created by potrace 1.14, written by Peter Selinger 2001-2017
</metadata>
<g transform="translate(0.000000,384.000000) scale(0.100000,-0.100000)"
fill="#000000" stroke="none">
<path d="M1237 3602 c-25 -27 -22 -78 5 -96 12 -9 28 -16 35 -16 22 0 53 39
53 65 0 29 -32 65 -58 65 -11 0 -26 -8 -35 -18z"/>
<path d="M3257 3602 c-33 -36 -8 -92 40 -92 25 0 53 30 53 57 0 46 -62 69 -93
35z"/>
<path d="M2580 3588 c-134 -21 -263 -117 -325 -241 -19 -38 -35 -78 -35 -88 0
-23 0 -23 -120 -4 -122 19 -231 19 -361 0 -299 -44 -537 -153 -765 -352 -55
-48 -166 -172 -186 -207 -15 -27 312 -433 571 -711 275 -295 714 -720 966
-935 155 -132 407 -330 420 -330 4 0 42 29 85 65 315 267 491 647 492 1066 0
247 -44 433 -153 652 l-50 98 98 147 c231 345 290 534 193 616 -60 50 -138 45
-281 -18 l-77 -33 -21 44 c-77 158 -275 260 -451 231z m768 -353 c-3 -41 -20
-84 -66 -177 -61 -122 -208 -350 -227 -354 -5 -1 -34 27 -63 62 l-53 65 36 44
c58 72 95 164 102 257 l6 81 61 27 c34 15 72 32 86 38 14 6 47 11 74 11 l48 1
-4 -55z"/>
<path d="M3382 3528 c-21 -21 -14 -66 13 -84 51 -33 104 21 71 71 -18 27 -63
34 -84 13z"/>
<path d="M1137 3502 c-35 -39 -10 -92 43 -92 34 0 60 23 60 54 0 49 -70 75
-103 38z"/>
<path d="M1320 3500 c-39 -39 -12 -90 48 -90 31 0 62 29 62 57 0 22 -39 53
-65 53 -14 0 -34 -9 -45 -20z"/>
<path d="M1998 3499 c-23 -13 -23 -62 -2 -84 24 -23 66 -15 83 16 13 24 13 29
-2 53 -18 27 -49 33 -79 15z"/>
<path d="M1232 3418 c-17 -17 -15 -83 2 -97 24 -20 69 -9 86 22 13 24 13 30 0
55 -17 30 -66 42 -88 20z"/>
<path d="M708 2578 c-46 -70 -111 -222 -151 -353 -16 -51 -47 -242 -47 -287 0
-19 -10 -30 -46 -49 -57 -29 -120 -99 -134 -148 -23 -82 0 -173 58 -234 36
-39 114 -77 155 -77 33 0 35 -2 57 -62 12 -35 44 -105 71 -156 l48 -93 -59
-82 c-127 -178 -240 -384 -269 -492 -39 -143 26 -235 155 -222 105 11 309 113
514 256 52 37 100 70 106 73 5 4 58 -17 117 -47 117 -58 247 -105 372 -132
112 -24 417 -24 530 0 120 26 229 63 340 117 158 75 157 61 11 173 -68 53
-184 147 -257 209 -72 62 -150 127 -171 145 -183 149 -722 693 -989 998 -107
122 -317 379 -375 460 l-20 27 -16 -24z m146 -1638 c36 -44 102 -110 146 -146
60 -51 77 -70 69 -80 -21 -26 -259 -175 -355 -223 -123 -61 -199 -81 -222 -58
-24 25 0 110 67 242 55 108 207 345 221 345 4 0 37 -36 74 -80z"/>
<path d="M327 2122 c-19 -21 -21 -45 -7 -73 21 -39 100 -12 100 34 0 23 -35
57 -58 57 -11 0 -26 -8 -35 -18z"/>
<path d="M212 1368 c-35 -45 -14 -108 36 -108 38 0 52 17 52 62 0 27 -5 40
-19 48 -26 14 -56 13 -69 -2z"/>
<path d="M104 1255 c-13 -21 -15 -31 -6 -50 22 -49 105 -42 118 10 15 59 -78
92 -112 40z"/>
<path d="M296 1264 c-35 -35 -6 -94 47 -94 32 0 57 24 57 55 0 32 -25 55 -60
55 -16 0 -36 -7 -44 -16z"/>
<path d="M3466 1258 c-32 -45 -11 -100 37 -100 38 0 57 19 57 57 0 59 -63 87
-94 43z"/>
<path d="M214 1174 c-20 -19 -24 -31 -19 -52 7 -30 30 -52 56 -52 49 0 68 85
27 114 -30 21 -35 20 -64 -10z"/>
<path d="M3372 1164 c-43 -30 -16 -94 41 -94 37 0 70 34 62 63 -14 46 -62 60
-103 31z"/>
<path d="M3562 1164 c-28 -20 -30 -69 -3 -84 48 -25 101 -1 101 45 0 25 -33
55 -60 55 -9 0 -26 -7 -38 -16z"/>
<path d="M3466 1074 c-33 -33 -6 -104 39 -104 46 0 70 53 45 101 -13 23 -62
26 -84 3z"/>
<path d="M1063 420 c-50 -20 -30 -100 25 -100 16 0 33 5 40 12 20 20 14 65
-10 82 -25 18 -25 18 -55 6z"/>
<path d="M1296 308 c-21 -29 -20 -51 2 -71 37 -34 92 -11 92 38 0 52 -65 74
-94 33z"/>
</g>
</svg>
